<?xml version="1.0" standalone="no"?>
<!DOCTYPE svg PUBLIC "-//W3C//DTD SVG 20010904//EN"
 "http://www.w3.org/TR/2001/REC-SVG-20010904/DTD/svg10.dtd">
<svg version="1.0" xmlns="http://www.w3.org/2000/svg"
 width="260.000000pt" height="260.000000pt" viewBox="0 0 260.000000 260.000000"
 preserveAspectRatio="xMidYMid meet">
<metadata>
Created by potrace 1.11, written by Peter Selinger 2001-2013
</metadata>
<g transform="translate(0.000000,260.000000) scale(0.100000,-0.100000)"
fill="#000000" stroke="none">
<path d="M1415 1941 c-3 -5 -2 -12 3 -15 5 -3 9 1 9 9 0 17 -3 19 -12 6z"/>
<path d="M1079 1913 c-13 -16 -12 -17 4 -4 9 7 17 15 17 17 0 8 -8 3 -21 -13z"/>
<path d="M1235 1759 c-3 -3 -16 -4 -30 -1 -14 2 -25 0 -25 -7 0 -5 -7 -8 -15
-5 -8 4 -22 1 -30 -6 -8 -7 -15 -10 -15 -7 0 10 -105 -45 -113 -60 -5 -7 -13
-11 -18 -7 -5 3 -8 2 -7 -3 2 -4 0 -8 -3 -8 -11 0 -49 -37 -49 -47 0 -5 6 -6
13 -2 7 4 9 3 4 -2 -5 -5 -14 -9 -19 -9 -6 0 -13 -5 -15 -12 -6 -17 20 -10 43
12 32 31 86 70 97 70 6 0 12 6 15 13 2 6 -2 12 -9 12 -7 0 -9 3 -6 6 4 4 14 1
24 -7 15 -12 16 -12 10 4 -7 18 7 24 18 7 8 -13 47 11 41 26 -2 6 2 11 9 11 7
0 11 -7 8 -16 -3 -10 -2 -12 4 -5 4 6 20 10 36 9 18 -1 27 3 28 14 0 10 2 12
6 4 2 -7 9 -13 14 -13 6 0 7 5 4 10 -3 6 -1 10 4 10 6 0 11 -4 11 -8 0 -7 27
-12 90 -15 14 -1 29 -6 33 -12 5 -6 7 -3 3 7 -3 12 -1 15 9 11 8 -3 13 -9 10
-13 -5 -8 24 -25 39 -21 5 1 17 -6 27 -15 11 -9 19 -13 19 -8 0 5 4 3 9 -5 6
-9 11 -10 15 -2 7 10 -6 16 -27 12 -5 -1 -6 3 -2 9 10 16 45 -7 39 -25 -4 -8
-2 -15 3 -15 5 0 9 9 10 20 1 13 -8 23 -33 32 -19 6 -34 16 -34 22 0 5 -3 6
-6 3 -4 -3 -16 -1 -28 5 -23 13 -37 17 -81 23 -16 2 -30 5 -30 6 0 5 -97 4
-100 -2z m105 -9 c3 -1 13 -2 23 -1 9 1 17 -2 17 -7 0 -5 -10 -8 -22 -6 -13 1
-23 3 -23 4 0 1 -12 3 -28 4 -15 2 -30 6 -33 9 -5 5 52 2 66 -3z m-125 -9 c-9
-8 -36 -10 -30 -2 2 4 11 8 20 8 8 0 13 -3 10 -6z m238 -24 c4 3 7 4 7 0 0
-18 -21 -14 -30 5 -10 21 -10 21 3 6 8 -10 17 -15 20 -11z m-324 -4 c-6 -7
-15 -10 -20 -7 -13 8 -3 21 15 21 12 0 13 -4 5 -14z m-73 -35 c4 -7 4 -10 -1
-6 -4 4 -14 3 -22 -4 -11 -8 -12 -7 -7 6 7 19 20 21 30 4z m-61 -38 c-10 -11
-21 -17 -25 -15 -5 3 -11 0 -13 -5 -3 -6 -4 -5 -3 2 2 7 8 13 14 13 6 0 17 6
24 13 20 20 23 14 3 -8z"/>
<path d="M1790 1686 c0 -2 7 -7 16 -10 8 -3 12 -2 9 4 -6 10 -25 14 -25 6z"/>
<path d="M1554 1658 c3 -19 24 -53 30 -50 12 5 26 2 24 -5 -1 -5 6 -20 16 -35
11 -18 23 -25 34 -21 13 5 14 3 5 -7 -9 -9 -9 -17 0 -31 9 -14 7 -21 -14 -38
-20 -16 -27 -17 -39 -6 -19 16 -46 12 -79 -13 l-27 -19 -34 29 c-127 108 -291
93 -388 -35 l-24 -32 5 47 c3 29 0 51 -7 57 -10 8 -63 7 -72 -2 -7 -6 -13 -44
-16 -93 -2 -24 -9 -46 -15 -49 -15 -5 -17 -45 -3 -45 6 0 10 -26 10 -58 0 -48
-4 -62 -23 -80 -30 -28 -40 -28 -31 0 10 32 7 76 -6 109 -14 33 -61 53 -81 36
-11 -10 -11 -9 0 5 7 10 16 16 20 14 4 -3 8 5 9 17 3 42 8 67 15 73 10 11 8
24 -4 24 -5 0 -8 -4 -4 -9 3 -5 1 -12 -4 -15 -5 -4 -8 2 -7 11 2 9 8 19 15 21
12 4 43 58 39 68 -2 3 5 10 15 15 23 13 22 24 -3 26 -11 1 -20 -2 -20 -8 0
-16 -4 -23 -25 -47 -11 -13 -20 -29 -21 -35 0 -7 -4 -20 -8 -29 -4 -9 -9 -25
-11 -35 -2 -10 -4 -18 -6 -18 -8 0 -4 -45 5 -45 6 0 3 -7 -6 -14 -10 -7 -18
-18 -18 -23 0 -5 -8 -18 -19 -27 -16 -14 -19 -15 -24 -2 -7 17 -66 14 -77 -4
-4 -6 -8 -36 -9 -68 -1 -31 -6 -58 -11 -60 -5 -2 -6 -10 -3 -18 3 -9 -2 -14
-13 -15 -12 0 -14 -3 -6 -6 16 -6 -3 -33 -24 -33 -10 0 -14 14 -14 51 l0 50
-37 -3 c-33 -3 -38 -7 -45 -38 -15 -60 -30 -90 -45 -90 -13 0 -15 10 -11 52 4
41 11 57 33 76 24 20 35 23 85 19 l58 -5 -7 26 c-9 35 -56 45 -125 27 -65 -17
-119 -74 -136 -144 -13 -55 -41 -91 -70 -91 -21 0 -23 8 -22 80 0 65 2 70 27
80 31 12 32 38 2 49 -22 9 -23 14 -19 65 l4 56 -33 0 c-19 0 -39 -4 -45 -8 -7
-4 -15 -36 -19 -72 -4 -39 -13 -68 -21 -73 -17 -10 -18 -36 -1 -42 7 -3 13
-28 14 -65 3 -79 23 -117 67 -125 38 -8 89 14 108 45 11 18 13 18 35 0 33 -26
93 -10 118 33 18 30 18 30 26 9 12 -33 47 -33 92 -1 l29 21 -4 -94 c-3 -102
-5 -99 58 -86 30 7 31 9 31 55 1 125 2 131 22 126 27 -7 92 16 112 39 9 10 24
18 32 18 9 0 25 10 36 22 l20 21 20 -24 c15 -19 27 -23 62 -22 34 2 49 -4 75
-26 100 -88 264 -77 353 24 17 20 38 53 47 73 12 31 20 37 45 39 51 4 59 17
59 102 0 76 9 101 37 101 9 0 13 -19 13 -68 0 -72 12 -101 45 -106 20 -3 34
-26 15 -26 -6 0 -8 6 -4 13 5 9 4 9 -6 0 -19 -17 -21 -44 -7 -62 10 -12 9 -14
-4 -9 -15 6 -19 -1 -20 -45 0 -10 -5 -15 -12 -11 -7 4 -9 4 -5 0 8 -10 -70
-126 -85 -126 -6 0 -2 -7 9 -15 18 -13 18 -14 -5 -8 -18 5 -22 3 -16 -7 6 -10
4 -12 -8 -7 -10 4 -23 -3 -35 -18 -11 -13 -22 -21 -26 -18 -3 3 -6 1 -6 -6 0
-7 -6 -11 -14 -8 -8 3 -20 -1 -26 -8 -7 -8 -16 -13 -20 -10 -5 3 -14 0 -22 -7
-7 -7 -22 -14 -33 -15 -11 -2 -30 -4 -42 -5 -13 -1 -23 -6 -23 -10 0 -4 -5 -8
-11 -8 -5 0 -7 6 -3 13 6 9 4 9 -7 1 -23 -17 -49 -24 -46 -12 2 13 -62 19 -69
6 -3 -5 -10 -6 -15 -3 -5 4 -9 3 -9 -2 0 -10 69 -32 75 -24 5 9 48 7 63 -3 7
-4 18 -4 25 1 7 5 22 8 34 7 12 0 20 2 17 7 -2 4 -11 6 -19 2 -8 -3 -15 -1
-15 4 0 13 32 13 48 0 6 -5 12 -5 12 0 0 5 12 10 27 11 15 1 29 6 32 11 3 5
15 11 26 13 11 2 19 10 17 17 -2 8 3 11 12 8 15 -6 72 31 75 48 0 6 5 10 9 10
11 0 46 35 35 35 -4 0 1 7 12 16 11 8 20 22 20 32 0 9 6 16 13 14 6 -1 12 7
12 18 0 11 5 20 11 20 6 0 8 9 4 21 -6 16 -4 20 6 13 12 -6 12 -5 1 8 -10 13
-10 18 -1 24 8 4 9 3 5 -4 -4 -7 -2 -12 3 -12 6 0 11 8 12 18 0 9 2 25 4 35 4
19 -11 23 -18 5 -4 -10 -6 -10 -6 -1 -1 7 8 17 19 23 11 6 19 17 18 24 -2 7
12 26 31 41 l33 28 -3 -94 -4 -94 40 1 c22 1 43 -2 46 -7 3 -5 6 16 6 48 1
150 -1 141 38 141 19 0 48 10 65 22 51 36 124 70 130 60 3 -5 19 -14 35 -20
36 -14 105 3 131 31 9 11 23 19 31 19 44 0 115 73 98 100 -9 14 -25 12 -25 -3
0 -14 -36 -57 -48 -57 -4 0 -6 18 -4 40 10 102 -67 150 -158 99 -42 -24 -80
-82 -80 -123 0 -32 -27 -76 -47 -76 -8 0 -11 5 -8 10 11 18 7 97 -5 120 -22
41 -78 43 -117 4 -12 -12 -18 -13 -24 -3 -12 20 -48 20 -67 1 -13 -13 -19 -36
-21 -77 -2 -63 -23 -120 -47 -129 -16 -6 -18 3 -15 91 2 56 0 63 -23 79 -15 9
-35 14 -46 11 -11 -3 -23 0 -27 5 -3 7 -1 8 5 4 17 -10 14 15 -4 39 -12 16
-17 17 -23 7 -6 -11 -10 -10 -15 4 -3 9 -4 19 -1 22 3 3 5 0 5 -7 0 -7 5 -9
11 -5 8 4 3 11 -12 20 -13 7 -24 16 -24 21 0 4 -5 7 -12 7 -6 -1 -9 5 -6 12 3
8 1 14 -5 14 -6 0 -13 -6 -15 -12 -3 -7 -6 -3 -6 10 -1 12 -5 22 -10 22 -5 0
-8 -6 -7 -12z m714 -146 c2 -27 -1 -42 -9 -42 -7 0 -9 -8 -6 -21 7 -24 -20
-39 -34 -18 -10 14 -5 101 6 120 4 5 14 9 23 7 12 -2 18 -16 20 -46z m-1386
-5 c-12 -13 -19 -27 -15 -32 5 -4 2 -5 -5 -1 -11 6 -8 13 9 32 12 13 25 24 27
24 3 0 -4 -10 -16 -23z m1096 -55 c2 -19 -3 -38 -12 -47 -8 -9 -13 -22 -9 -30
4 -11 -1 -14 -18 -12 -21 4 -24 10 -24 47 0 76 56 114 63 42z m-1136 -59 c-6
-3 -9 -10 -6 -15 4 -7 2 -8 -5 -4 -8 6 -9 12 -2 20 6 7 9 15 7 18 -1 3 2 1 8
-4 8 -8 7 -12 -2 -15z m697 -20 c0 -25 -1 -26 -9 -8 -12 27 -12 35 0 35 6 0
10 -12 9 -27z m-724 -173 c2 -16 -1 -33 -6 -36 -5 -3 -9 -14 -9 -24 0 -23 -13
-32 -35 -24 -21 9 -14 87 11 115 21 24 36 13 39 -31z m871 -125 c-15 -20 -24
-41 -20 -48 5 -9 4 -9 -6 0 -10 9 -7 19 15 47 15 20 30 36 32 36 3 0 -7 -16
-21 -35z m-48 -75 c-7 -11 -17 -20 -22 -20 -5 0 -1 9 9 20 10 11 20 20 22 20
2 0 -2 -9 -9 -20z m-67 -64 c-1 -3 -4 -7 -8 -8 -5 0 -14 -8 -21 -17 -10 -12
-12 -13 -6 -1 16 33 38 49 35 26z m-61 -53 c0 -3 -6 -3 -14 0 -8 3 -20 -1 -27
-9 -6 -8 -14 -12 -17 -9 -3 3 -12 -1 -21 -8 -14 -11 -14 -10 -2 5 7 10 17 16
21 13 4 -3 13 2 20 10 10 12 40 11 40 -2z m-280 -46 c0 -5 8 -3 18 4 15 13 16
12 3 -3 -10 -14 -18 -15 -32 -7 -23 12 -24 16 -4 16 8 0 15 -5 15 -10z m100
-11 c-7 -7 -13 -7 -20 0 -6 6 -3 10 10 10 13 0 16 -4 10 -10z"/>
<path d="M676 1582 c-3 -5 1 -9 9 -9 8 0 12 4 9 9 -3 4 -7 8 -9 8 -2 0 -6 -4
-9 -8z"/>
<path d="M629 1163 c-13 -16 -12 -17 4 -4 9 7 17 15 17 17 0 8 -8 3 -21 -13z"/>
<path d="M872 1078 c-12 -12 -5 -38 10 -38 6 0 4 8 -3 18 -13 15 -12 16 3 4 9
-8 14 -20 11 -28 -3 -8 0 -14 7 -14 6 0 9 -4 5 -9 -3 -6 2 -14 11 -19 9 -5 15
-12 15 -15 -1 -4 1 -6 3 -4 3 1 19 -15 36 -35 18 -21 36 -35 41 -32 5 3 9 0 9
-5 0 -6 5 -11 10 -11 6 0 20 -9 32 -20 12 -10 25 -17 29 -14 5 3 23 -2 40 -11
17 -9 28 -12 25 -6 -6 10 6 15 27 12 4 0 7 4 7 10 0 6 -8 8 -17 5 -10 -3 -29
1 -43 8 -21 12 -26 12 -37 -3 -10 -14 -11 -13 -6 8 4 17 3 22 -6 17 -6 -4 -8
-12 -5 -18 4 -7 2 -8 -5 -4 -6 4 -9 12 -5 17 9 15 -25 36 -53 33 -13 -1 -21 2
-17 7 3 5 10 7 15 4 5 -4 9 -1 9 4 0 6 -5 11 -10 11 -15 0 -51 36 -93 92 -24
32 -38 43 -45 36z m118 -142 c0 -5 -9 3 -21 18 -11 14 -25 24 -30 20 -5 -3 -9
-2 -8 3 4 22 -2 34 -13 27 -7 -4 -10 -4 -6 1 4 4 3 15 -3 24 -7 9 9 -6 34 -34
26 -27 46 -54 47 -59z m60 -31 c11 -13 10 -14 -4 -9 -9 3 -16 10 -16 15 0 13
6 11 20 -6z m85 -45 c3 -6 -1 -7 -9 -4 -18 7 -21 14 -7 14 6 0 13 -4 16 -10z"/>
<path d="M1669 763 c-13 -16 -12 -17 4 -4 16 13 21 21 13 21 -2 0 -10 -8 -17
-17z"/>
<path d="M980 700 c8 -5 20 -10 25 -10 6 0 3 5 -5 10 -8 5 -19 10 -25 10 -5 0
-3 -5 5 -10z"/>
<path d="M1570 699 c0 -5 5 -7 10 -4 6 3 10 8 10 11 0 2 -4 4 -10 4 -5 0 -10
-5 -10 -11z"/>
<path d="M1375 649 c-4 -6 -5 -12 -2 -15 2 -3 7 2 10 11 7 17 1 20 -8 4z"/>
</g>
</svg>
